<svg height="512pt" viewBox="-53 0 512 512" width="512pt" xmlns="http://www.w3.org/2000/svg">
<path d="m75.742188 328.828125 65.503906-5.738281v188.910156h-26.484375l-31.867188-17.65625c-44.394531-.011719-80.898437-34.984375-82.816406-79.335938-1.914063-44.347656 31.441406-82.339843 75.664063-86.179687zm0 0" fill="#6FCF97"/>
<path d="m406.070312 411.453125c.015626 21.988281-8.714843 43.078125-24.261718 58.628906-15.546875 15.546875-36.640625 24.277344-58.628906 24.261719l-31.867188 17.65625h-26.480469v-188.910156l65.5 5.738281c42.847657 3.746094 75.726563 39.613281 75.738281 82.625zm0 0" fill="#6FCF97"/>
<path d="m353.105469 450.207031v35.308594l-3.046875 4.367187c-8.652344 2.960938-17.734375 4.46875-26.878906 4.460938l-31.867188 17.65625h-176.550781l-31.867188-17.65625c-9.144531.007812-18.226562-1.5-26.878906-4.460938l-3.046875-4.367187v-35.308594c0-9.75 7.90625-17.65625 17.65625-17.65625h264.828125c9.75 0 17.652344 7.90625 17.652344 17.65625zm0 0" fill="#3D9E4D"/>
<path d="m335.453125 414.898438v70.617187c0 14.628906-11.859375 26.484375-26.484375 26.484375h-211.863281c-14.625 0-26.480469-11.855469-26.480469-26.484375v-70.617187" fill="#6FCF97"/>
<path d="m264.832031 323.089844v188.910156h-123.585937v-188.910156l5.472656-.441406h112.640625zm0 0" fill="#2F7A36"/>
<path d="m229.519531 512-17.65625-105.929688h-17.652343l-17.65625 105.929688zm0 0" fill="#6FCF97"/>
<g fill="#3D9E4D">
<path d="m229.519531 388.414062-19.421875 25.863282c-1.648437 2.25-4.269531 3.578125-7.058594 3.578125-2.789062 0-5.414062-1.328125-7.0625-3.578125l-19.421874-25.863282 26.484374-17.65625zm0 0"/>
<path d="m105.941406 432.550781c-2.953125.003907-5.714844-1.46875-7.351562-3.929687l-17.65625-26.484375c-1.757813-2.636719-1.964844-6.011719-.550782-8.84375l17.65625-35.308594c1.410157-2.824219 4.21875-4.675781 7.367188-4.867187 3.148438-.1875 6.15625 1.316406 7.894531 3.949218 1.738281 2.632813 1.941407 5.992188.53125 8.8125l-15.367187 30.730469 14.8125 22.21875c1.804687 2.707031 1.976562 6.1875.441406 9.058594-1.535156 2.867187-4.523438 4.660156-7.777344 4.664062zm0 0"/>
<path d="m300.132812 432.550781c-3.253906-.003906-6.242187-1.796875-7.777343-4.664062-1.53125-2.871094-1.363281-6.351563.441406-9.058594l14.8125-22.21875-15.363281-30.730469c-2.183594-4.359375-.414063-9.664062 3.945312-11.84375 4.363282-2.179687 9.664063-.414062 11.847656 3.949219l17.652344 35.308594c1.417969 2.832031 1.207032 6.207031-.550781 8.84375l-17.65625 26.484375c-1.636719 2.460937-4.398437 3.933594-7.351563 3.929687zm0 0"/>
</g>
<path d="m264.832031 323.089844v71.945312l-26.484375 19.863282-14.832031-18.539063-20.476563-25.601563-20.480468 25.601563-14.832032 18.539063-26.480468-19.863282v-71.945312l5.472656-.441406h112.640625zm0 0" fill="#3D9E4D"/>
<path d="m97.105469 141.242188c-5.925781-20.0625-8.898438-40.878907-8.828125-61.792969 0-35.3125 17.65625-52.964844 52.96875-52.964844 0 0 8.824218-26.484375 105.929687-26.484375 97.101563 0 61.792969 141.242188 61.792969 141.242188l-97.105469 52.964843zm0 0" fill="#3d324c"/>
<path d="m291.226562 147.683594c6.089844-4.851563 26.570313-18.710938 26.570313 19.421875 0 36.28125-23.128906 43.167969-31.957031 44.492187h-165.605469c-8.828125-1.324218-31.957031-8.210937-31.957031-44.492187 0-38.132813 20.480468-24.273438 26.574218-19.421875zm0 0" fill="#3D9E4D"/>
<path d="m248.324219 274.539062c1.742187 16.417969 5.445312 32.570313 11.035156 48.109376 1.566406 4.371093 3.394531 8.644531 5.472656 12.800781-19.035156 14.3125-39.796875 26.175781-61.792969 35.308593-22-9.132812-42.757812-20.996093-61.792968-35.308593 2.078125-4.15625 3.90625-8.429688 5.472656-12.800781 5.609375-15.464844 9.285156-31.566407 10.945312-47.933594zm0 0" fill="#3D9E4D"/>
<path d="m114.761719 132.414062c.046875 0 .089843-.039062.089843-.089843 25.242188-13.917969 39.257813-41.988281 35.21875-70.53125 0 0 58.175782 49.875 134.179688 28.601562 5.117188 15.296875 7.507812 31.371094 7.0625 47.492188 0 3.355469 0 6.621093-.085938 9.796875.277344 21.382812-2.003906 42.722656-6.796874 63.558594-2.351563 9.328124-5.601563 18.40625-9.710938 27.101562-12.535156 26.484375-34.339844 52.964844-71.679688 52.964844-37.519531 0-59.324218-26.304688-71.859374-52.964844-4.078126-8.699219-7.300782-17.773438-9.621094-27.101562-4.753906-20.84375-7.003906-42.179688-6.707032-63.558594-.089843-3.175782-.089843-6.441406-.089843-9.796875 0-1.855469 0-3.707031.089843-5.5625zm0 0" fill="#307F34"/>
</svg>
